<?xml version="1.0" encoding="UTF-8"?>
<svg id="Layer_1" data-name="Layer 1" xmlns="http://www.w3.org/2000/svg" viewBox="0 0 146.06 147">
  <defs>
    <style>
      .cls-1 {
        fill: #231f20;
      }
    </style>
  </defs>
  <path class="cls-1" d="m68.8,71.1L33.6,7.9c-.27-.67-.97-1.57-2.1-2.7-1.13-1.14-2.77-1.7-4.9-1.7H5c-1.33,0-2.5.46-3.5,1.4-1,.93-1.5,2.13-1.5,3.6v130c0,1.46.5,2.66,1.5,3.6,1,.93,2.17,1.4,3.5,1.4h24c1.47,0,2.67-.47,3.6-1.4.93-.94,1.4-2.14,1.4-3.6V63.5l22.6,41.8c.67,1.2,1.53,2.26,2.6,3.2,1.07.93,2.53,1.4,4.4,1.4h10.4c1.87,0,3.33-.47,4.4-1.4,1.07-.94,1.87-2,2.4-3.2l22.09-40.86V9.89l-34.09,61.21Z"/>
  <path class="cls-1" d="m117.06,28c-1.47,0-2.67-.47-3.6-1.4-.93-.93-1.4-2.13-1.4-3.6V5.2c0-1.47.46-2.7,1.4-3.7.93-1,2.13-1.5,3.6-1.5h23.8c1.47,0,2.7.5,3.7,1.5s1.5,2.23,1.5,3.7v17.8c0,1.47-.5,2.67-1.5,3.6-1,.93-2.23,1.4-3.7,1.4h-23.8Zm.2,119c-1.47,0-2.67-.47-3.6-1.4-.93-.93-1.4-2.13-1.4-3.6V48c0-1.47.47-2.67,1.4-3.6.93-.93,2.13-1.4,3.6-1.4h23.6c1.33,0,2.5.47,3.5,1.4,1,.93,1.5,2.13,1.5,3.6v94c0,1.47-.5,2.67-1.5,3.6-1,.93-2.17,1.4-3.5,1.4h-23.6Z"/>
</svg>