<?xml version="1.0" encoding="UTF-8"?>
<svg id="Layer_1" data-name="Layer 1" xmlns="http://www.w3.org/2000/svg" viewBox="0 0 601.38 152">
  <defs>
    <style>
      .cls-1 {
        fill: #fff;
      }

      .cls-2 {
        fill: none;
        stroke: #fff;
        stroke-miterlimit: 10;
        stroke-width: 5px;
      }
    </style>
  </defs>
  <path class="cls-2" d="m71.3,73.6L36.1,10.4c-.27-.67-.97-1.57-2.1-2.7-1.13-1.14-2.77-1.7-4.9-1.7H7.5c-1.33,0-2.5.46-3.5,1.4-1,.93-1.5,2.13-1.5,3.6v130c0,1.46.5,2.66,1.5,3.6,1,.93,2.17,1.4,3.5,1.4h24c1.47,0,2.67-.47,3.6-1.4.93-.94,1.4-2.14,1.4-3.6v-75l22.6,41.8c.67,1.2,1.53,2.26,2.6,3.2,1.07.93,2.53,1.4,4.4,1.4h10.4c1.87,0,3.33-.47,4.4-1.4,1.07-.94,1.87-2,2.4-3.2l22.09-40.86V12.39l-34.09,61.21Z"/>
  <path class="cls-2" d="m124.56,30.5c-1.47,0-2.67-.47-3.6-1.4-.93-.93-1.4-2.13-1.4-3.6V7.7c0-1.47.46-2.7,1.4-3.7.93-1,2.13-1.5,3.6-1.5h23.8c1.47,0,2.7.5,3.7,1.5s1.5,2.23,1.5,3.7v17.8c0,1.47-.5,2.67-1.5,3.6-1,.93-2.23,1.4-3.7,1.4h-23.8Zm.2,119c-1.47,0-2.67-.47-3.6-1.4-.93-.93-1.4-2.13-1.4-3.6V50.5c0-1.47.47-2.67,1.4-3.6.93-.93,2.13-1.4,3.6-1.4h23.6c1.33,0,2.5.47,3.5,1.4,1,.93,1.5,2.13,1.5,3.6v94c0,1.47-.5,2.67-1.5,3.6-1,.93-2.17,1.4-3.5,1.4h-23.6Z"/>
  <g>
    <path class="cls-1" d="m208.58,71c-.33,0-.61-.11-.83-.33-.22-.22-.32-.49-.32-.82v-32.65c0-.37.11-.66.32-.88s.49-.33.83-.33h2.5c.4,0,.7.1.9.3s.32.37.35.5l10.6,20.2,10.65-20.2c.07-.13.19-.3.38-.5.18-.2.48-.3.88-.3h2.45c.37,0,.66.11.88.33.22.22.32.51.32.88v32.65c0,.33-.11.61-.32.82s-.51.33-.88.33h-2.45c-.33,0-.61-.11-.83-.33-.22-.22-.32-.49-.32-.82v-24.6l-8.35,16.3c-.13.33-.33.59-.6.78-.27.18-.6.27-1,.27h-1.55c-.43,0-.77-.09-1.02-.27-.25-.18-.46-.44-.62-.78l-8.35-16.3v24.6c0,.33-.11.61-.33.82s-.49.33-.82.33h-2.45Z"/>
    <path class="cls-1" d="m263.28,71c-.37,0-.65-.11-.85-.33-.2-.22-.3-.49-.3-.82v-32.7c0-.33.1-.61.3-.82.2-.22.48-.33.85-.33h2.65c.33,0,.61.11.83.33.22.22.32.49.32.82v32.7c0,.33-.11.61-.32.82s-.49.33-.83.33h-2.65Z"/>
    <path class="cls-1" d="m291.93,71c-.37,0-.65-.11-.85-.33-.2-.22-.3-.49-.3-.82v-32.7c0-.33.1-.61.3-.82.2-.22.48-.33.85-.33h2.65c.33,0,.6.11.8.33.2.22.3.49.3.82v29.5h16.65c.37,0,.65.11.85.33.2.22.3.51.3.88v2c0,.33-.1.61-.3.82-.2.22-.48.33-.85.33h-20.4Z"/>
    <path class="cls-1" d="m335.08,71c-.37,0-.65-.11-.85-.33-.2-.22-.3-.49-.3-.82v-32.65c0-.37.1-.66.3-.88.2-.22.48-.33.85-.33h2.55c.37,0,.66.11.88.33s.33.51.33.88v13.8h17.2v-13.8c0-.37.11-.66.32-.88.22-.22.49-.33.83-.33h2.55c.37,0,.66.11.88.33.22.22.33.51.33.88v32.65c0,.33-.11.61-.33.82s-.51.33-.88.33h-2.55c-.33,0-.61-.11-.83-.33-.22-.22-.32-.49-.32-.82v-14.35h-17.2v14.35c0,.33-.11.61-.33.82-.22.22-.51.33-.88.33h-2.55Z"/>
    <path class="cls-1" d="m382.23,71c-.27,0-.5-.1-.7-.3-.2-.2-.3-.43-.3-.7,0-.17.02-.35.05-.55l12.4-32.35c.13-.33.32-.6.55-.8.23-.2.58-.3,1.05-.3h3.4c.43,0,.78.1,1.03.3.25.2.44.47.57.8l12.35,32.35c.07.2.1.38.1.55,0,.27-.1.5-.3.7-.2.2-.43.3-.7.3h-2.55c-.4,0-.69-.1-.88-.3-.18-.2-.31-.38-.38-.55l-2.75-7.1h-16.4l-2.75,7.1c-.03.17-.15.35-.35.55-.2.2-.5.3-.9.3h-2.55Zm8-12.25h13.5l-6.75-17.75-6.75,17.75Z"/>
    <path class="cls-1" d="m443.83,71.5c-2.9,0-5.33-.44-7.3-1.33s-3.47-2.03-4.52-3.45c-1.05-1.42-1.61-2.93-1.68-4.52,0-.27.11-.51.33-.73.22-.22.48-.33.78-.33h2.55c.4,0,.7.1.9.3.2.2.33.43.4.7.17.8.58,1.59,1.23,2.38.65.78,1.57,1.43,2.75,1.95,1.18.52,2.71.77,4.57.77,2.87,0,4.98-.51,6.33-1.52,1.35-1.02,2.03-2.38,2.03-4.08,0-1.17-.36-2.11-1.08-2.82s-1.81-1.36-3.28-1.93c-1.47-.57-3.37-1.18-5.7-1.85-2.43-.7-4.45-1.47-6.05-2.3-1.6-.83-2.79-1.87-3.57-3.1-.78-1.23-1.18-2.8-1.18-4.7,0-1.8.48-3.41,1.45-4.83.97-1.42,2.36-2.54,4.17-3.38,1.82-.83,4.03-1.25,6.62-1.25,2.07,0,3.88.27,5.43.83,1.55.55,2.84,1.28,3.88,2.2,1.03.92,1.82,1.9,2.35,2.95.53,1.05.82,2.07.85,3.07,0,.23-.08.46-.25.68-.17.22-.43.32-.8.32h-2.65c-.23,0-.48-.07-.73-.2-.25-.13-.44-.38-.58-.75-.2-1.37-.97-2.52-2.3-3.45-1.33-.93-3.07-1.4-5.2-1.4s-3.92.42-5.27,1.25c-1.35.83-2.03,2.13-2.03,3.9,0,1.13.32,2.08.95,2.83.63.75,1.63,1.41,3,1.98,1.37.57,3.15,1.17,5.35,1.8,2.67.73,4.85,1.51,6.55,2.33,1.7.82,2.96,1.83,3.77,3.05.82,1.22,1.23,2.77,1.23,4.67,0,2.1-.55,3.89-1.65,5.38-1.1,1.48-2.64,2.62-4.62,3.4-1.98.78-4.33,1.17-7.03,1.17Z"/>
    <path class="cls-1" d="m208.58,121c-.37,0-.65-.11-.85-.33-.2-.22-.3-.49-.3-.82v-32.7c0-.33.1-.61.3-.82.2-.22.48-.33.85-.33h2.65c.33,0,.61.11.83.33.22.22.32.49.32.82v32.7c0,.33-.11.61-.32.82s-.49.33-.83.33h-2.65Z"/>
    <path class="cls-1" d="m237.23,121c-.37,0-.65-.11-.85-.33-.2-.22-.3-.49-.3-.82v-32.7c0-.33.1-.61.3-.82.2-.22.48-.33.85-.33h2.65c.33,0,.6.11.8.33.2.22.3.49.3.82v29.5h16.65c.37,0,.65.11.85.33.2.22.3.51.3.88v2c0,.33-.1.61-.3.82-.2.22-.48.33-.85.33h-20.4Z"/>
    <path class="cls-1" d="m280.38,121c-.37,0-.65-.11-.85-.33-.2-.22-.3-.49-.3-.82v-32.7c0-.33.1-.61.3-.82.2-.22.48-.33.85-.33h2.65c.33,0,.61.11.83.33.22.22.32.49.32.82v32.7c0,.33-.11.61-.32.82s-.49.33-.83.33h-2.65Z"/>
    <path class="cls-1" d="m309.03,121c-.33,0-.61-.11-.83-.33-.22-.22-.32-.49-.32-.82v-32.65c0-.37.11-.66.32-.88s.49-.33.83-.33h2.5c.4,0,.7.1.9.3s.32.37.35.5l10.6,20.2,10.65-20.2c.07-.13.19-.3.38-.5.18-.2.48-.3.88-.3h2.45c.37,0,.66.11.88.33.22.22.32.51.32.88v32.65c0,.33-.11.61-.32.82s-.51.33-.88.33h-2.45c-.33,0-.61-.11-.83-.33-.22-.22-.32-.49-.32-.82v-24.6l-8.35,16.3c-.13.33-.33.59-.6.78-.27.18-.6.27-1,.27h-1.55c-.43,0-.77-.09-1.02-.27-.25-.18-.46-.44-.62-.78l-8.35-16.3v24.6c0,.33-.11.61-.33.82s-.49.33-.82.33h-2.45Z"/>
    <path class="cls-1" d="m363.73,121c-.37,0-.65-.11-.85-.33-.2-.22-.3-.49-.3-.82v-32.7c0-.33.1-.61.3-.82.2-.22.48-.33.85-.33h2.65c.33,0,.61.11.83.33.22.22.32.49.32.82v32.7c0,.33-.11.61-.32.82s-.49.33-.83.33h-2.65Z"/>
    <path class="cls-1" d="m400.03,121c-.33,0-.61-.11-.82-.33-.22-.22-.33-.49-.33-.82v-29.4h-9.6c-.33,0-.61-.11-.82-.33-.22-.22-.33-.49-.33-.83v-2.1c0-.37.11-.66.33-.88.22-.22.49-.33.82-.33h24.1c.37,0,.66.11.88.33s.33.51.33.88v2.1c0,.33-.11.61-.33.83-.22.22-.51.33-.88.33h-9.55v29.4c0,.33-.11.61-.33.82-.22.22-.51.33-.88.33h-2.6Z"/>
    <path class="cls-1" d="m429.13,121c-.27,0-.5-.1-.7-.3-.2-.2-.3-.43-.3-.7,0-.17.02-.35.05-.55l12.4-32.35c.13-.33.32-.6.55-.8.23-.2.58-.3,1.05-.3h3.4c.43,0,.77.1,1.02.3.25.2.44.47.58.8l12.35,32.35c.07.2.1.38.1.55,0,.27-.1.5-.3.7-.2.2-.43.3-.7.3h-2.55c-.4,0-.69-.1-.88-.3-.18-.2-.31-.38-.38-.55l-2.75-7.1h-16.4l-2.75,7.1c-.03.17-.15.35-.35.55-.2.2-.5.3-.9.3h-2.55Zm8-12.25h13.5l-6.75-17.75-6.75,17.75Z"/>
    <path class="cls-1" d="m481.13,121c-.37,0-.65-.11-.85-.33-.2-.22-.3-.49-.3-.82v-32.65c0-.37.1-.66.3-.88.2-.22.48-.33.85-.33h11.35c3.43,0,6.2.52,8.3,1.55,2.1,1.03,3.63,2.56,4.6,4.58.97,2.02,1.47,4.49,1.5,7.42.03,1.5.05,2.82.05,3.95s-.02,2.43-.05,3.9c-.07,3.07-.58,5.61-1.53,7.62-.95,2.02-2.45,3.52-4.5,4.5-2.05.98-4.76,1.48-8.12,1.48h-11.6Zm3.75-4.25h7.6c2.3,0,4.13-.32,5.5-.95,1.37-.63,2.36-1.65,2.98-3.05.62-1.4.94-3.25.97-5.55.07-1,.1-1.88.1-2.62v-2.25c0-.75-.03-1.61-.1-2.58-.07-3.23-.83-5.62-2.3-7.17-1.47-1.55-3.93-2.33-7.4-2.33h-7.35v26.5Z"/>
    <path class="cls-1" d="m526.48,121c-.27,0-.5-.1-.7-.3-.2-.2-.3-.43-.3-.7,0-.17.02-.35.05-.55l12.4-32.35c.13-.33.32-.6.55-.8.23-.2.58-.3,1.05-.3h3.4c.43,0,.77.1,1.02.3.25.2.44.47.58.8l12.35,32.35c.07.2.1.38.1.55,0,.27-.1.5-.3.7-.2.2-.43.3-.7.3h-2.55c-.4,0-.69-.1-.88-.3-.18-.2-.31-.38-.38-.55l-2.75-7.1h-16.4l-2.75,7.1c-.03.17-.15.35-.35.55-.2.2-.5.3-.9.3h-2.55Zm8-12.25h13.5l-6.75-17.75-6.75,17.75Z"/>
    <path class="cls-1" d="m588.08,121.5c-2.9,0-5.33-.44-7.3-1.33s-3.47-2.03-4.52-3.45c-1.05-1.42-1.61-2.93-1.68-4.52,0-.27.11-.51.33-.73.22-.22.48-.33.78-.33h2.55c.4,0,.7.1.9.3.2.2.33.43.4.7.17.8.58,1.59,1.23,2.38.65.78,1.57,1.43,2.75,1.95,1.18.52,2.71.77,4.57.77,2.87,0,4.98-.51,6.33-1.52,1.35-1.02,2.03-2.38,2.03-4.08,0-1.17-.36-2.11-1.08-2.82s-1.81-1.36-3.28-1.93c-1.47-.57-3.37-1.18-5.7-1.85-2.43-.7-4.45-1.47-6.05-2.3-1.6-.83-2.79-1.87-3.57-3.1-.78-1.23-1.18-2.8-1.18-4.7,0-1.8.48-3.41,1.45-4.83.97-1.42,2.36-2.54,4.17-3.38,1.82-.83,4.03-1.25,6.62-1.25,2.07,0,3.88.27,5.43.83,1.55.55,2.84,1.28,3.88,2.2,1.03.92,1.82,1.9,2.35,2.95.53,1.05.82,2.07.85,3.07,0,.23-.08.46-.25.68-.17.22-.43.32-.8.32h-2.65c-.23,0-.48-.07-.73-.2-.25-.13-.44-.38-.58-.75-.2-1.37-.97-2.52-2.3-3.45-1.33-.93-3.07-1.4-5.2-1.4s-3.92.42-5.27,1.25c-1.35.83-2.03,2.13-2.03,3.9,0,1.13.32,2.08.95,2.83.63.75,1.63,1.41,3,1.98,1.37.57,3.15,1.17,5.35,1.8,2.67.73,4.85,1.51,6.55,2.33,1.7.82,2.96,1.83,3.77,3.05.82,1.22,1.23,2.77,1.23,4.67,0,2.1-.55,3.89-1.65,5.38-1.1,1.48-2.64,2.62-4.62,3.4-1.98.78-4.33,1.17-7.03,1.17Z"/>
  </g>
</svg>